<?xml version="1.0" standalone="no"?>
<!DOCTYPE svg PUBLIC "-//W3C//DTD SVG 20010904//EN"
 "http://www.w3.org/TR/2001/REC-SVG-20010904/DTD/svg10.dtd">
<svg version="1.0" xmlns="http://www.w3.org/2000/svg"
 width="375.000000pt" height="375.000000pt" viewBox="0 0 375.000000 375.000000"
 preserveAspectRatio="xMidYMid meet">
<metadata>
Created by potrace 1.11, written by Peter Selinger 2001-2013
</metadata>
<g transform="translate(0.000000,375.000000) scale(0.100000,-0.100000)"
fill="#000000" stroke="none">
<path d="M560 2170 l0 -1570 215 0 215 0 2 768 3 767 818 3 817 2 0 215 0 215
-820 0 -820 0 0 365 0 365 818 2 817 3 0 215 0 215 -1032 3 -1033 2 0 -1570z"/>
<path d="M1150 2935 l0 -215 1025 0 1025 0 0 215 0 215 -1025 0 -1025 0 0
-215z"/>
<path d="M1150 1000 l0 -980 215 0 215 0 0 765 0 765 810 0 810 0 0 215 0 215
-1025 0 -1025 0 0 -980z"/>
</g>
</svg>
